The Girl With A Dragon Tattoo 2011

PLOT:
Journalist Mikael Blomkvist is aided in his search for a woman who has 
been missing for forty years by Lisbeth Salander, a young computer hacker.

DETAILS:
Source: riskee (big thx)

Genre: Crime, Drama, Mystery
Runtime: 2 hr 38 mn
Ratings: 8.2/10 from 36,750 users



Full Russian dubbing!

Full Russian dubbing!

Full Russian dubbing!



General
Complete name                    : Devushka.s.tatuyrovkoi.drakona.2011.DVDScr.Riskee.rus.DUB.avi
Format                           : AVI
Format/Info                      : Audio Video Interleave
File size                        : 1.22 GiB
Duration                         : 2h 38mn
Overall bit rate                 : 1 106 Kbps
Movie name                       : The Girl with the Dragon Tattoo 
Director                         : David Fincher
Genre                            : Thriller
Writing application              : VirtualDubMod 1.5.10.2 (build 2540/release)
Original source form/Name        : Movie
Copyright                        : http://upload.by/
Comment                          : by demon1

Video
ID                               : 0
Format                           : MPEG-4 Visual
Format profile                   : Advanced Simple@L5
Format settings, BVOP            : 1
Format settings, QPel            : No
Format settings, GMC             : No warppoints
Format settings, Matrix          : Custom
Codec ID                         : XVID
Codec ID/Hint                    : XviD
Duration                         : 2h 38mn
Bit rate                         : 516 Kbps
Width                            : 720 pixels
Height                           : 304 pixels
Display aspect ratio             : 2.35:1
Frame rate                       : 23.976 fps
Color space                      : YUV
Chroma subsampling               : 4:2:0
Bit depth                        : 8 bits
Scan type                        : Progressive
Compression mode                 : Lossy
Bits/(Pixel*Frame)               : 0.098
Stream size                      : 583 MiB (47%)
Writing library                  : XviD 1.2.1 (UTC 2008-12-04)

Audio #1
ID                               : 1
Format                           : MPEG Audio
Format version                   : Version 1
Format profile                   : Layer 3
Codec ID                         : 55
Codec ID/Hint                    : MP3
Duration                         : 2h 38mn
Bit rate mode                    : Constant
Bit rate                         : 128 Kbps
Channel(s)                       : 2 channels
Sampling rate                    : 48.0 KHz
Compression mode                 : Lossy
Stream size                      : 145 MiB (12%)
Alignment                        : Aligned on interleaves
Interleave, duration             : 42 ms (1.00 video frame)
Interleave, preload duration     : 504 ms
Writing library                  : LAME3.98r
Encoding settings                : -m s -V 4 -q 2 -lowpass 17 -b 128

Audio #2
ID                               : 2
Format                           : AC-3
Format/Info                      : Audio Coding 3
Mode extension                   : CM (complete main)
Codec ID                         : 2000
Duration                         : 2h 38mn
Bit rate mode                    : Constant
Bit rate                         : 448 Kbps
Channel(s)                       : 6 channels
Channel positions                : Front: L C R, Side: L R, LFE
Sampling rate                    : 48.0 KHz
Bit depth                        : 16 bits
Compression mode                 : Lossy
Stream size                      : 507 MiB (41%)
Alignment                        : Split accross interleaves
Interleave, duration             : 42 ms (1.00 video frame)
Interleave, preload duration     : 500 ms



 
http://bayimg.com/camefAadC
 
http://bayimg.com/camEdAAdc
 
http://bayimg.com/camECaaDC


Full Russian dubbing!

Full Russian dubbing!

Full Russian dubbing!